# xmcd
#
# Track frame offsets: 
#        150
#        13964
#        40655
#        56520
#        80105
#        109847
#        127987
#        138771
#        159049
#        177523
#        197981
#        209058
#        223110
#        237189
#        254339
#
# Disc length: 3792 seconds
#
# Revision: 1
# Processed by: cddbd v1.5.2PL0 Copyright (c) Steve Scherf et al.
# Submitted via: ExactAudioCopy v0.99pb4
#
DISCID=d90ece0f
DTITLE=Ruth Margot - When times change - We Zyt änderet
DYEAR=1900
DGENRE=CH
TTITLE0=Early in the morning
TTITLE1=Here is a man
TTITLE2=Hardtime Blues
TTITLE3=When times change
TTITLE4=All about you
TTITLE5=Make me a pallet on the floor
TTITLE6=Bring it on home
TTITLE7=In your soul
TTITLE8=Don't explain
TTITLE9=Give me now a chance
TTITLE10=Trouble in mind
TTITLE11=Farbeblues
TTITLE12=St. James Infirmary Blues
TTITLE13=I'm lost in the Blues
TTITLE14=Breeze
EXTD=
EXTT0=
EXTT1=
EXTT2=
EXTT3=
EXTT4=
EXTT5=
EXTT6=
EXTT7=
EXTT8=
EXTT9=
EXTT10=
EXTT11=
EXTT12=
EXTT13=
EXTT14=
PLAYORDER=
